<svg xmlns="http://www.w3.org/2000/svg" viewBox="0 0 1024 1024" role="img" aria-label="Comandante Zebra logo">
  <defs>
    <clipPath id="bg-clip">
      <rect x="0" y="0" width="1024" height="1024" rx="200" ry="200"/>
    </clipPath>
  </defs>
  <g clip-path="url(#bg-clip)">
    <!-- Norton Commander DOS blue background -->
    <rect width="1024" height="1024" fill="#0000AA"/>
    <!-- shadow -->
    <rect x="144" y="182" width="754" height="682" rx="60" ry="60" fill="#000" opacity="0.20"/>
    <!-- label -->
    <rect x="130" y="160" width="754" height="682" rx="60" ry="60" fill="#ffffff"/>
    <!-- zebra bars (centered, no medical cross) -->
    <g fill="#0F172A">
      <rect x="232" y="250" width="28" height="524" rx="4"/>
      <rect x="282" y="250" width="12" height="524" rx="4"/>
      <rect x="316" y="250" width="60" height="524" rx="4"/>
      <rect x="398" y="250" width="18" height="524" rx="4"/>
      <rect x="438" y="250" width="36" height="524" rx="4"/>
      <rect x="496" y="250" width="14" height="524" rx="4"/>
      <rect x="532" y="250" width="50" height="524" rx="4"/>
      <rect x="604" y="250" width="22" height="524" rx="4"/>
      <rect x="648" y="250" width="40" height="524" rx="4"/>
    </g>
    <!-- commander chevrons (▲ ▲ ▲) in military gold -->
    <g fill="none" stroke="#C9A227" stroke-width="30" stroke-linejoin="round" stroke-linecap="round">
      <polyline points="232,350 512,230 792,350"/>
      <polyline points="232,428 512,308 792,428"/>
      <polyline points="232,506 512,386 792,506"/>
    </g>
  </g>
</svg>
